PathFileType	4	(X/Y/Z)	s03c0302.trc
DataRate	CameraRate	NumFrames	NumMarkers	Units	OrigDataRate	OrigDataStartFrame	OrigNumFrames
200	200	4	52	mm	200	1500	2000
Frame#	Time	racr			lacr			c7			jug			rlel			rdr			llel			ldr			s2			lic			ric			lasi			rasi			rpsi			lpsi			rgt			lgt			rth1			rth2			rth3			rth4			rlfc			rmfc			rsh1			rsh2			rsh3			rsh4			rlmal			rmmal			rcal			rtoe			rmt5			rmt1			lth1			lth2			lth4			lth3			llfc			lmfc			lsh1			lsh2			lsh3			lsh4			llmal			lmmal			lcal			ltoe			lmt1			lmt5			SBIKE			LBIKE			RBIKE			
		X1	Y1	Z1	X2	Y2	Z2	X3	Y3	Z3	X4	Y4	Z4	X5	Y5	Z5	X6	Y6	Z6	X7	Y7	Z7	X8	Y8	Z8	X9	Y9	Z9	X10	Y10	Z10	X11	Y11	Z11	X12	Y12	Z12	X13	Y13	Z13	X14	Y14	Z14	X15	Y15	Z15	X16	Y16	Z16	X17	Y17	Z17	X18	Y18	Z18	X19	Y19	Z19	X20	Y20	Z20	X21	Y21	Z21	X22	Y22	Z22	X23	Y23	Z23	X24	Y24	Z24	X25	Y25	Z25	X26	Y26	Z26	X27	Y27	Z27	X28	Y28	Z28	X29	Y29	Z29	X30	Y30	Z30	X31	Y31	Z31	X32	Y32	Z32	X33	Y33	Z33	X34	Y34	Z34	X35	Y35	Z35	X36	Y36	Z36	X37	Y37	Z37	X38	Y38	Z38	X39	Y39	Z39	X40	Y40	Z40	X41	Y41	Z41	X42	Y42	Z42	X43	Y43	Z43	X44	Y44	Z44	X45	Y45	Z45	X46	Y46	Z46	X47	Y47	Z47	X48	Y48	Z48	X49	Y49	Z49	X50	Y50	Z50	X51	Y51	Z51	X52	Y52	Z52	
1500	7.5000	774.858468	1385.949768	-174.868419	722.708686	1388.731780	-491.181121	714.231787	1476.884942	-333.888139	675.119357	1299.876615	-318.877185	665.572574	1186.756630	12.742365	759.875709	934.174019	-52.971489	576.147278	1146.404831	-562.649611	738.754276	940.041911	-434.799241	149.786575	1319.756782	-239.598416	300.457066	1300.543908	-443.810311	338.277174	1331.718022	-76.623944	311.694368	1229.563782	-394.636861	345.219483	1251.570500	-117.070310	190.981756	1367.929738	-202.081555	183.949304	1361.092471	-282.921814	265.182200	1237.777929	-47.459376	236.653054	1202.872879	-441.247203	338.653037	1092.139558	-23.934458	404.428803	1032.580744	-23.222652	433.727885	952.520068	-16.171860	432.423854	1050.405875	-37.571183	472.095051	826.482899	-24.142785	471.251889	798.181685	-142.184612	340.391802	717.144351	-4.419621	287.305009	648.671582	-22.267002	204.484323	615.611374	-29.255131	307.552209	626.585610	-46.075645	95.056491	544.927697	-58.367678	129.465075	533.554105	-137.176456	29.484648	562.843061	-100.118777	202.307607	305.227217	-117.106993	119.877973	388.062688	-42.630370	150.461237	384.242088	-154.912041	306.566976	1056.729216	-462.653573	365.388589	993.021179	-464.606193	397.554247	1010.334136	-460.561571	385.422834	906.549292	-455.575463	460.171984	796.269800	-435.206381	467.117461	784.325010	-314.039672	390.321147	635.827525	-454.119896	385.171678	552.713399	-434.987645	335.806184	477.382634	-429.397375	416.484875	546.306037	-414.500669	286.586455	361.545659	-412.409037	0.000000	0.000000	-0.000000	216.631748	321.447771	-365.592416	524.169616	276.096600	-362.016567	430.509118	287.165268	-321.131089	403.660522	268.015648	-436.033163	-216.336854	944.709186	-234.831035	-11.706927	80.948834	-435.495964	-11.861364	81.196217	-35.076843	
1501	7.5050	773.784827	1387.010836	-173.261195	724.878419	1386.658116	-489.366853	714.394226	1476.461162	-333.510308	675.205437	1299.992869	-317.656606	664.998706	1186.258940	12.909741	759.888384	933.968806	-52.998576	577.381458	1145.800265	-563.638279	738.515654	939.597894	-435.126237	149.978311	1317.665961	-238.822505	301.324168	1296.674705	-445.236040	337.928504	1330.751134	-78.340433	312.466432	1226.054310	-396.013393	345.441732	1250.439032	-118.757100	189.777727	1366.219681	-202.887704	184.009817	1358.100977	-284.698562	266.512124	1237.511817	-48.420865	236.344198	1198.409905	-442.540895	341.650816	1094.136669	-23.591452	408.569330	1035.773296	-22.440024	439.305630	956.259826	-14.533744	436.087346	1053.861049	-37.473599	479.930491	831.398181	-22.118584	479.154528	802.609337	-140.382452	347.091066	723.426687	-2.978901	293.015883	655.791633	-21.306142	209.827464	623.944244	-28.514971	313.116890	633.394742	-45.022824	99.535908	554.982010	-58.149607	134.122891	543.372163	-137.226528	33.956783	573.371437	-99.832725	206.353832	315.267908	-117.489254	124.166947	398.246048	-42.679558	154.803934	394.554962	-154.927818	303.723584	1050.888793	-462.075758	360.982952	985.737697	-463.683121	393.612882	1002.374853	-460.130530	379.015085	898.928503	-453.753535	452.178421	787.841169	-433.010634	460.095794	776.415617	-312.559182	383.607138	627.200964	-452.749789	379.273682	543.046514	-431.936242	330.922198	468.020508	-428.613502	410.569850	536.190983	-411.236661	283.059836	351.412153	-411.454612	0.000000	0.000000	-0.000000	213.223746	312.095322	-365.563144	520.459353	264.712908	-361.961021	426.851259	276.271399	-320.491289	400.000623	257.440818	-435.847846	-216.332242	944.677467	-235.030889	-11.695430	80.884713	-435.519615	-11.614261	80.909028	-35.174356	
1502	7.5100	772.697715	1387.885052	-171.480098	726.972251	1385.156774	-488.135233	714.422013	1476.071227	-332.993123	675.324345	1300.134735	-316.270409	664.578833	1185.785480	13.017903	759.944543	933.994570	-53.782068	578.940927	1145.021628	-564.255602	738.194103	939.017887	-435.436994	149.256172	1315.236220	-243.722290	302.271423	1292.866880	-446.648101	337.474196	1329.771082	-80.104827	313.244628	1222.495090	-397.398835	344.947364	1249.189084	-120.926151	189.459399	1363.808751	-205.170887	183.721647	1355.915207	-289.520505	267.761860	1237.113411	-49.513020	235.992878	1193.874049	-443.126827	344.529644	1096.466615	-23.306078	412.538508	1039.377083	-21.845820	444.854473	960.460785	-13.137743	439.637072	1057.406476	-38.247278	487.772117	836.799483	-20.238165	487.370273	807.436213	-138.792055	353.858728	729.782185	-1.709632	297.913023	662.339048	-21.290610	215.390531	632.177439	-27.783963	318.881874	640.681465	-43.709759	104.184270	564.601071	-58.059351	139.056389	553.116717	-137.287527	38.501208	582.855766	-100.176495	211.227155	325.168507	-117.743110	129.115860	408.132503	-42.673807	158.032114	403.808553	-156.489701	300.886568	1044.878145	-461.607283	356.502473	978.349574	-463.286782	389.591909	994.292607	-459.746904	372.610597	891.251502	-451.796524	444.294518	779.701415	-430.958555	451.699043	768.631060	-310.401391	376.510943	618.785221	-451.497501	372.771891	535.457346	-432.846562	325.483212	458.987747	-427.818567	404.584870	527.850672	-410.752849	279.037796	341.924656	-411.173334	0.000000	0.000000	-0.000000	209.268314	303.277173	-365.462347	516.239968	253.374810	-361.837861	422.150641	265.239050	-319.053208	395.639924	247.237898	-435.792058	-216.286439	944.653122	-235.206861	-11.688174	80.838972	-435.562204	-11.859014	81.176421	-35.130251	
1503	7.5150	771.300741	1389.080647	-169.703414	729.063192	1383.756768	-486.496178	714.338295	1475.832555	-332.372421	675.478012	1300.303333	-314.715728	663.512882	1185.485851	13.396522	759.884189	933.999704	-53.713560	580.424278	1144.540773	-565.388635	737.956244	936.842976	-431.124525	148.520094	1312.568921	-247.627954	303.229029	1288.987926	-448.156112	336.768588	1328.687689	-81.996995	314.171975	1218.970627	-398.957682	344.772269	1248.051418	-122.642922	189.182743	1361.268847	-207.547844	183.786438	1352.764976	-291.303550	268.855228	1236.675830	-50.738923	235.791373	1189.232157	-443.757363	347.170342	1098.825130	-23.188665	416.451111	1043.194550	-21.446209	450.446616	965.051431	-12.039943	443.022926	1061.617068	-38.463793	495.539805	842.533852	-18.568789	495.685322	812.355102	-137.146618	360.569600	736.182992	-0.597727	304.053250	669.561580	-20.514877	221.261335	640.151209	-27.840868	324.801943	647.726187	-43.028822	109.307496	574.128231	-58.067861	144.298832	562.669928	-137.424001	43.372793	592.193690	-100.332197	216.699798	335.202349	-118.030158	134.414838	417.874877	-42.905338	161.830298	412.776662	-157.683239	297.975386	1038.630316	-461.189072	352.028428	970.872327	-462.588428	385.538213	986.102021	-459.405757	366.366467	883.542381	-449.883696	436.694192	771.522366	-428.542317	443.587953	760.900815	-308.852093	368.976592	610.754582	-450.577915	366.071821	527.370711	-432.057371	319.580067	450.392833	-427.097910	398.212791	519.865914	-410.459958	274.404022	332.827980	-410.890315	0.000000	0.000000	-0.000000	204.788761	295.063256	-365.389094	511.397986	242.477763	-361.546531	417.256328	254.856775	-318.316812	390.726949	237.391046	-435.630242	-216.261938	944.625971	-235.348951	-11.680589	80.808418	-435.574569	-11.844097	81.166244	-35.134465	
